<svg width="800" height="800" viewBox="0 0 800 800" fill="none" xmlns="http://www.w3.org/2000/svg">
<path d="M0 400C0 179.086 179.086 0 400 0V0C620.914 0 800 179.086 800 400V400C800 620.914 620.914 800 400 800V800C179.086 800 0 620.914 0 400V400Z" fill="black"/>
<path d="M584.237 255.982C598.596 247.838 608.264 232.566 608.264 215.048C608.264 188.99 586.873 167.86 560.48 167.86C552.095 167.837 543.851 170.016 536.573 174.179C529.294 178.343 523.237 184.345 519.007 191.585C513.771 182.528 506.239 175.012 497.171 169.796C488.103 164.579 477.819 161.847 467.358 161.875C434.52 161.875 407.914 188.156 407.914 220.573C407.914 252.99 434.52 279.271 467.358 279.271C470.167 279.271 472.922 279.072 475.636 278.699L467.231 287.002L449.212 287.303L448.903 305.091L443.744 310.187L442.362 308.814C440.379 306.878 437.717 305.794 434.945 305.794C432.173 305.794 429.511 306.878 427.527 308.814L426.599 309.727C425.629 310.685 424.86 311.826 424.335 313.084C423.81 314.341 423.54 315.69 423.54 317.053C423.54 318.416 423.81 319.765 424.335 321.023C424.86 322.28 425.629 323.421 426.599 324.379L427.996 325.753L207.357 543.629L211.691 547.899L205.841 553.67C199.65 550.765 193.038 551.059 189.021 555.019C183.449 560.52 185.021 570.998 192.522 578.411C200.031 585.833 210.635 587.381 216.207 581.88C220.231 577.911 220.517 571.387 217.58 565.267L223.422 559.488L227.748 563.767L258.236 533.652L270.904 546.169L237.726 578.919L251.743 592.754L260.395 584.214L272.96 596.62L264.308 605.161L271.325 612.082L271.928 612.693L297.694 638.125L321.577 614.527L295.828 589.103L312.521 572.625L337.651 597.445L355.367 579.943L330.237 555.123L346.922 538.644L373.29 564.687L397.182 541.089L370.814 515.046L363.202 507.521L354.534 516.062L341.977 503.656L350.629 495.115L336.611 481.28L303.448 514.03L290.78 501.529L448.387 345.89L449.768 347.271C451.752 349.207 454.414 350.291 457.186 350.291C459.958 350.291 462.62 349.207 464.603 347.271L465.532 346.358C466.501 345.4 467.27 344.259 467.795 343.002C468.321 341.744 468.591 340.395 468.591 339.032C468.591 337.669 468.321 336.32 467.795 335.062C467.27 333.805 466.501 332.664 465.532 331.706L464.135 330.325L469.294 325.237L487.312 324.935L487.606 307.147L496.028 298.837C495.636 301.547 495.439 304.282 495.44 307.02C495.44 339.437 522.063 365.718 554.876 365.718C587.69 365.718 614.312 339.429 614.312 307.012C614.312 285.136 602.208 266.086 584.237 255.982ZM554.948 346.136C549.741 346.137 544.586 345.112 539.775 343.12C534.965 341.128 530.594 338.207 526.913 334.525C523.232 330.843 520.312 326.472 518.321 321.662C516.33 316.851 515.306 311.695 515.308 306.488C515.309 298.329 517.85 290.373 522.579 283.724L512.657 273.873L516.753 269.825C522.936 272.722 529.556 272.436 533.572 268.476C539.136 262.975 537.589 252.49 530.072 245.084C522.571 237.662 511.966 236.122 506.386 241.623C502.37 245.576 502.076 252.116 505.021 258.228L500.925 262.276L491.003 252.386C484.206 257.509 475.932 260.291 467.421 260.316C459.585 260.316 451.926 257.994 445.409 253.642C438.893 249.291 433.812 243.107 430.809 235.869C427.805 228.632 427.014 220.667 428.536 212.981C430.057 205.294 433.822 198.231 439.355 192.683C444.889 187.135 451.942 183.352 459.625 181.81C467.307 180.269 475.274 181.04 482.519 184.024C489.764 187.008 495.962 192.073 500.33 198.578C504.698 205.083 507.041 212.737 507.061 220.573H531.588C531.28 218.91 531.112 217.224 531.088 215.533C531.085 209.46 532.959 203.534 536.452 198.567C539.946 193.599 544.889 189.832 550.605 187.781C556.321 185.73 562.531 185.494 568.386 187.107C574.241 188.719 579.454 192.101 583.314 196.79C587.174 201.479 589.491 207.245 589.948 213.301C590.405 219.356 588.981 225.406 585.869 230.621C582.758 235.836 578.111 239.963 572.565 242.437C567.019 244.91 560.844 245.61 554.884 244.441V266.856L554.948 266.848C560.154 266.847 565.309 267.872 570.119 269.864C574.928 271.855 579.299 274.775 582.98 278.456C586.661 282.138 589.581 286.508 591.572 291.318C593.564 296.127 594.589 301.282 594.588 306.488C594.591 311.695 593.568 316.852 591.577 321.663C589.586 326.474 586.666 330.846 582.985 334.528C579.304 338.21 574.933 341.13 570.122 343.122C565.311 345.114 560.155 346.138 554.948 346.136Z" fill="white"/>
</svg>
