<svg width="800" height="800" viewBox="0 0 800 800" fill="none" xmlns="http://www.w3.org/2000/svg">
<g clip-path="url(#clip0_1_3)">
<path d="M0 0H800V800H0V0Z" fill="#1E1E1E"/>
<path d="M423.183 412.623C436.831 404.655 446 389.865 446 372.938C446 347.567 425.405 327 400 327C374.595 327 354 347.567 354 372.938C354 389.865 363.169 404.655 376.817 412.623L363.2 460.219V474H436.8V460.219L423.183 412.623Z" fill="#C0C0C0"/>
<path d="M315.938 214V255.444H231.375V545.556H315.938V587H175V214H315.938ZM485.062 214H626V587H485.062V545.556H569.625V255.444H485.062V214Z" fill="#FFA116"/>
</g>
<defs>
<clipPath id="clip0_1_3">
<rect width="800" height="800" fill="white"/>
</clipPath>
</defs>
</svg>
