<svg width="960" height="960" viewBox="0 0 960 960" fill="none" xmlns="http://www.w3.org/2000/svg">
<rect width="960" height="960" fill="black"/>
<path d="M595.342 462.471C593.275 461.48 591.175 460.526 589.047 459.613C585.342 391.346 548.04 352.262 485.405 351.862C485.121 351.861 484.839 351.861 484.555 351.861C447.091 351.861 415.933 367.852 396.755 396.952L431.202 420.582C445.529 398.846 468.013 394.212 484.572 394.212C484.763 394.212 484.955 394.212 485.144 394.214C505.768 394.345 521.33 400.342 531.402 412.035C538.732 420.548 543.635 432.312 546.062 447.16C527.777 444.052 508.002 443.096 486.862 444.308C427.312 447.738 389.028 482.47 391.599 530.73C392.904 555.21 405.099 576.27 425.938 590.027C443.556 601.658 466.247 607.345 489.831 606.057C520.975 604.35 545.408 592.467 562.452 570.74C575.397 554.24 583.585 532.857 587.2 505.915C602.043 514.872 613.042 526.66 619.117 540.83C629.447 564.918 630.05 604.5 597.753 636.77C569.455 665.04 535.44 677.27 484.034 677.648C427.01 677.225 383.884 658.938 355.845 623.293C329.589 589.915 316.019 541.705 315.513 480C316.019 418.294 329.589 370.084 355.845 336.707C383.884 301.062 427.01 282.775 484.033 282.351C541.47 282.778 585.348 301.153 614.46 336.97C628.735 354.534 639.497 376.622 646.592 402.376L686.96 391.605C678.36 359.906 664.827 332.589 646.412 309.935C609.09 264.017 554.505 240.488 484.174 240H483.892C413.704 240.486 359.73 264.104 323.471 310.198C291.205 351.216 274.561 408.289 274.002 479.831L274 480L274.002 480.169C274.561 551.71 291.205 608.785 323.471 649.803C359.73 695.895 413.704 719.515 483.892 720H484.174C546.575 719.568 590.56 703.23 626.795 667.028C674.202 619.665 672.775 560.298 657.15 523.853C645.94 497.717 624.568 476.49 595.342 462.471ZM487.601 563.768C461.501 565.238 434.386 553.522 433.049 528.43C432.058 509.825 446.29 489.065 489.203 486.592C494.117 486.309 498.94 486.17 503.678 486.17C519.265 486.17 533.848 487.684 547.105 490.583C542.16 552.337 513.155 562.365 487.601 563.768Z" fill="white"/>
</svg>
